<svg width="30" height="30" viewBox="0 0 30 30" fill="none" xmlns="http://www.w3.org/2000/svg">
<g filter="url(#filter0_i_470_4842)">
<path d="M19.4009 18.9592V11.0334C19.4009 10.7919 19.2028 10.5938 18.9614 10.5938H11.0372C10.7958 10.5938 10.5977 10.7919 10.5977 11.0334V18.9592C10.5977 19.2007 10.7958 19.3988 11.0372 19.3988H18.9614C19.2028 19.3988 19.4009 19.2007 19.4009 18.9592ZM14.9993 17.3431C13.7054 17.3431 12.653 16.2904 12.653 14.9963C12.653 13.7022 13.7054 12.6495 14.9993 12.6495C16.2932 12.6495 17.3456 13.7022 17.3456 14.9963C17.3456 16.2904 16.2932 17.3431 14.9993 17.3431Z" fill="#CCF0EE"/>
<path d="M11.457 24.6874C11.457 25.1827 11.8594 25.5789 12.3485 25.5789C12.3609 25.5789 12.3671 25.5789 12.3795 25.5789C12.4042 25.5727 12.4352 25.5727 12.4599 25.5727H12.4661C12.9057 25.517 13.24 25.1394 13.24 24.6874C13.24 24.2355 12.8995 23.8579 12.4661 23.8022H12.4599C12.4352 23.8022 12.4042 23.8022 12.3795 23.796C12.3671 23.796 12.3609 23.796 12.3485 23.796C11.8594 23.7898 11.457 24.1922 11.457 24.6874Z" fill="#CCF0EE"/>
<path d="M3.54382 16.3344C4.03908 16.3344 4.43529 15.9382 4.43529 15.4429C4.43529 15.4429 4.43529 15.4429 4.43529 15.4367C4.43529 15.4367 4.43529 15.4367 4.43529 15.4305C4.43529 14.9415 4.03289 14.5391 3.54382 14.5391C3.04855 14.5391 2.65234 14.9353 2.65234 15.4305C2.65234 15.4305 2.65234 15.4305 2.65234 15.4367C2.65234 15.4367 2.65234 15.4367 2.65234 15.4429C2.65234 15.932 3.04855 16.3344 3.54382 16.3344Z" fill="#CCF0EE"/>
<path d="M9.71333 11.7705H0.0247631C0.0185723 11.7705 0.0123816 11.7705 0 11.7705V14.9959C0.00619078 14.9959 0.0123815 14.9959 0.0247631 14.9959H1.82628C2.02438 14.2282 2.71775 13.6587 3.54731 13.6587C4.37688 13.6587 5.07025 14.2282 5.26835 14.9959H9.71333V11.7705Z" fill="#CCF0EE"/>
<path d="M14.9985 13.5283C14.1875 13.5283 13.5312 14.1845 13.5312 14.9955C13.5312 15.8065 14.1875 16.4627 14.9985 16.4627C15.8095 16.4627 16.4657 15.8065 16.4657 14.9955C16.4657 14.1845 15.8095 13.5283 14.9985 13.5283Z" fill="#CCF0EE"/>
<path d="M12.9023 22.9976C13.6143 23.2267 14.1281 23.8954 14.1281 24.688C14.1281 25.4744 13.6143 26.1432 12.9023 26.3723V29.9698C12.9023 29.976 12.9023 29.9822 12.9023 29.9946H17.0873C17.0873 29.9884 17.0873 29.9822 17.0873 29.9698V26.4032C16.3197 26.2051 15.7501 25.5116 15.7501 24.6818C15.7501 23.8521 16.3197 23.1586 17.0873 22.9605V20.2793H12.9023V22.9976Z" fill="#CCF0EE"/>
<path d="M26.665 0.0247681V5.74621C26.665 5.86386 26.6217 5.97532 26.535 6.05581L25.2102 7.3871C25.3526 7.64098 25.4392 7.9382 25.4392 8.25399C25.4392 9.23233 24.6468 10.0249 23.6625 10.0311C22.6843 10.0311 21.8857 9.23852 21.8857 8.25399C21.8857 7.26945 22.6781 6.47687 23.6625 6.47687C24.0092 6.47687 24.3311 6.57595 24.6035 6.74313L25.7859 5.56045V0.0247681C25.7859 0.0185761 25.7859 0.0123841 25.7859 0H19.9171C19.9171 0.00619204 19.9171 0.0123841 19.9171 0.0247681V4.39016C19.9171 4.52019 19.8551 4.64403 19.7561 4.73072L17.4531 6.61929V9.71531H18.9575C19.688 9.71531 20.2761 10.3097 20.2761 11.0342V11.7711H24.7211C24.9192 11.0033 25.6126 10.4336 26.4421 10.4336C27.2717 10.4336 27.9651 11.0033 28.1632 11.7711H29.9647C29.9709 11.7711 29.9833 11.7711 29.9894 11.7711V1.23841L29.9833 1.23222C29.9523 0.5449 29.3951 0 28.7018 0H26.6588C26.6588 0.0123841 26.665 0.0185761 26.665 0.0247681Z" fill="#CCF0EE"/>
<path d="M26.44 13.1029C26.9352 13.1029 27.3314 12.7067 27.3376 12.2115C27.3376 12.2115 27.3376 12.2115 27.3376 12.2053C27.3376 12.2053 27.3376 12.2053 27.3376 12.1991C27.3376 11.7038 26.9352 11.3076 26.4462 11.3076C25.9571 11.3076 25.5609 11.7038 25.5547 12.1867C25.5547 12.1929 25.5547 12.1929 25.5547 12.1991C25.5547 12.2053 25.5547 12.2053 25.5547 12.2115C25.5547 12.7129 25.9509 13.1029 26.44 13.1029Z" fill="#CCF0EE"/>
<path d="M18.4125 24.6874C18.4125 24.1983 18.0163 23.7959 17.521 23.7959C17.521 23.7959 17.521 23.7959 17.5148 23.7959C17.5148 23.7959 17.5149 23.7959 17.5087 23.7959C17.0196 23.7959 16.6172 24.1983 16.6172 24.6874C16.6172 25.1764 17.0134 25.5788 17.5087 25.5788C17.5087 25.5788 17.5087 25.5788 17.5148 25.5788C17.521 25.5788 17.5149 25.5788 17.521 25.5788C18.0163 25.5788 18.4125 25.1764 18.4125 24.6874Z" fill="#CCF0EE"/>
<path d="M29.9665 12.6494H28.165C27.9669 13.4172 27.2735 13.9807 26.4439 13.9807C25.6144 13.9807 24.921 13.411 24.7229 12.6494H20.2779V18.9591C20.2779 19.6898 19.6836 20.278 18.9593 20.278H17.9688V22.9592C18.7364 23.1573 19.306 23.8508 19.306 24.6805C19.306 25.5103 18.7364 26.2038 17.9688 26.4019V29.9685C17.9688 29.9747 17.9688 29.9809 17.9688 29.9933H22.5128C22.5066 29.9686 22.5066 29.9376 22.5066 29.9066V24.1852C22.5066 24.0675 22.5499 23.9561 22.6366 23.8756L23.9614 22.5505C23.819 22.2904 23.7324 21.9994 23.7324 21.6774C23.7324 20.6991 24.5248 19.9003 25.5091 19.9003C26.4873 19.9003 27.2859 20.6929 27.2859 21.6774C27.2859 22.6558 26.4934 23.4545 25.5091 23.4545C25.1624 23.4545 24.8467 23.3555 24.5743 23.1883L23.3919 24.3709V29.9128C23.3919 29.9438 23.3919 29.9685 23.3857 29.9995H28.7159C29.4279 29.9995 30.0036 29.4237 30.0036 28.7116V26.1543V24.4948V21.4978V12.6556C29.985 12.6494 29.9727 12.6494 29.9665 12.6494Z" fill="#CCF0EE"/>
<path d="M6.31459 29.7657V25.1031L5.13215 23.9204C4.85976 24.0876 4.53784 24.1867 4.19735 24.1867C3.2192 24.1867 2.42059 23.3941 2.42059 22.4096C2.42059 21.4312 3.21301 20.6325 4.19735 20.6325C5.17549 20.6325 5.9741 21.425 5.9741 22.4096C5.9741 22.7254 5.89362 23.0226 5.74504 23.2765L7.06987 24.6016C7.15035 24.6821 7.19987 24.7935 7.19987 24.9112V29.7533C7.19987 29.84 7.17511 29.9143 7.13797 29.9824H12.0225C12.0225 29.9762 12.0225 29.9701 12.0225 29.9577V26.4158C11.1991 26.261 10.58 25.5366 10.58 24.6697C10.58 23.8028 11.2053 23.0783 12.0225 22.9235V20.2609H11.032C10.3015 20.2609 9.71333 19.6665 9.71333 18.942V15.8584H5.26835C5.07025 16.6262 4.37688 17.1897 3.54731 17.1959C2.71775 17.1959 2.02438 16.6262 1.82628 15.8584H0.0247631C0.0185723 15.8584 0.0123816 15.8584 0 15.8584V28.6883C0 29.4004 0.575742 29.9762 1.28768 29.9762H6.3765C6.33935 29.9267 6.31459 29.8462 6.31459 29.7657Z" fill="#CCF0EE"/>
<path d="M13.7862 9.71531V0.0247681C13.7862 0.0185761 13.7862 0.0123841 13.7862 0H10.957C10.957 0.00619204 10.957 0.0123841 10.957 0.0247681V4.49542L12.0652 5.6038C12.1457 5.68429 12.1952 5.79575 12.1952 5.9134V9.70912H13.7862V9.71531Z" fill="#CCF0EE"/>
<path d="M24.6016 21.6787C24.6016 22.1739 25.004 22.5701 25.4992 22.5701C25.9945 22.5701 26.3907 22.1677 26.3907 21.6787C26.3907 21.1834 25.9883 20.7872 25.493 20.7872C25.004 20.781 24.6016 21.1834 24.6016 21.6787Z" fill="#CCF0EE"/>
<path d="M7.37775 7.25593C7.87301 7.25593 8.27541 6.85353 8.27541 6.36446C8.27541 5.8692 7.87301 5.47299 7.38394 5.4668C7.16107 5.4668 6.95058 5.55347 6.79581 5.68966C6.78962 5.69586 6.78343 5.70205 6.78343 5.70824C6.77105 5.72062 6.75867 5.733 6.74629 5.73919C6.59152 5.90015 6.49247 6.11683 6.49247 6.35827C6.48008 6.85353 6.88248 7.25593 7.37775 7.25593Z" fill="#CCF0EE"/>
<path d="M4.19225 21.5215C3.69699 21.5215 3.30078 21.9239 3.30078 22.413C3.30078 22.9082 3.70318 23.3044 4.19225 23.3044C4.4275 23.3044 4.63799 23.2178 4.79276 23.0692C4.80514 23.0506 4.82371 23.032 4.83609 23.0135C4.84848 22.9949 4.86705 22.9825 4.88562 22.9701C5.00944 22.8154 5.08373 22.6234 5.08373 22.4068C5.08992 21.9177 4.68752 21.5215 4.19225 21.5215Z" fill="#CCF0EE"/>
<path d="M0.0247631 3.36228H4.86595C4.98357 3.36228 5.09501 3.40562 5.17549 3.49231L6.49412 4.81121C6.75414 4.6688 7.05129 4.58211 7.36702 4.58211C8.34517 4.58211 9.14378 5.37469 9.14378 6.35922C9.14378 7.33757 8.35136 8.13015 7.36702 8.13634C6.38888 8.13634 5.59027 7.34376 5.59027 6.35922C5.59027 6.01247 5.68932 5.69668 5.85647 5.42423L4.68642 4.24774H0.0247631C0.0185723 4.24774 0.0123816 4.24774 0 4.24774V10.8918C0.00619078 10.8918 0.0123815 10.8918 0.0247631 10.8918H9.71952C9.79381 10.2292 10.351 9.71531 11.032 9.71531H11.3167V6.09916L10.2086 4.99078C10.1281 4.91029 10.0786 4.79883 10.0786 4.68118V0.0247681C10.0786 0.0185761 10.0786 0.0123841 10.0786 0H1.28768C0.575742 0 0 0.57586 0 1.28794V3.36847C0.0123816 3.36228 0.0185723 3.36228 0.0247631 3.36228Z" fill="#CCF0EE"/>
<path d="M19.0308 0.0247681C19.0308 0.0185761 19.0308 0.0123841 19.0308 0H14.6602C14.6602 0.00619204 14.6602 0.0123841 14.6602 0.0247681V9.71531H16.5669V6.41495C16.5669 6.28492 16.6288 6.16108 16.7279 6.07439L19.0308 4.18582V0.0247681Z" fill="#CCF0EE"/>
<path d="M22.7734 8.25573C22.7734 8.75099 23.1758 9.15339 23.6649 9.15339C24.1602 9.15339 24.5626 8.75099 24.5626 8.26192C24.5626 7.76666 24.1602 7.37045 23.6711 7.36426C23.1696 7.36426 22.7734 7.76047 22.7734 8.25573Z" fill="#CCF0EE"/>
</g>
<defs>
<filter id="filter0_i_470_4842" x="0" y="0" width="33.0039" height="32.999" filterUnits="userSpaceOnUse" color-interpolation-filters="sRGB">
<feFlood flood-opacity="0" result="BackgroundImageFix"/>
<feBlend mode="normal" in="SourceGraphic" in2="BackgroundImageFix" result="shape"/>
<feColorMatrix in="SourceAlpha" type="matrix" values="0 0 0 0 0 0 0 0 0 0 0 0 0 0 0 0 0 0 127 0" result="hardAlpha"/>
<feOffset dx="3" dy="3"/>
<feGaussianBlur stdDeviation="3"/>
<feComposite in2="hardAlpha" operator="arithmetic" k2="-1" k3="1"/>
<feColorMatrix type="matrix" values="0 0 0 0 0.8 0 0 0 0 0.941176 0 0 0 0 0.933333 0 0 0 1 0"/>
<feBlend mode="multiply" in2="shape" result="effect1_innerShadow_470_4842"/>
</filter>
</defs>
</svg>
