<svg width="30" height="30" viewBox="0 0 30 30" fill="none" xmlns="http://www.w3.org/2000/svg">
<g filter="url(#filter0_i_470_4833)">
<path d="M28.4107 14.7527C28.4107 13.2703 27.846 11.8586 26.8225 10.7645C26.7872 10.7292 26.7519 10.6586 26.7166 10.6233C26.6813 10.588 26.646 10.5527 26.5754 10.5174L26.4695 10.4115C26.3989 10.3409 26.3284 10.2703 26.2578 10.235L26.2225 10.1997C26.1872 10.1645 26.1872 10.1645 26.1872 10.1645C25.6578 9.74092 25.1284 9.45857 24.4931 9.24681C24.4931 9.24681 24.4931 9.24681 24.4578 9.24681C24.4225 9.24681 24.3872 9.24681 24.3872 9.21151C24.3166 9.17622 24.246 9.17622 24.1401 9.14092C24.0695 9.14092 24.0342 9.10563 23.9637 9.10563C23.8931 9.07034 23.8225 9.07034 23.7519 9.07034C23.6813 9.07034 23.646 9.03504 23.5754 9.03504C23.5754 9.03504 23.5754 9.03504 23.5401 9.03504C23.4342 9.03504 23.3284 8.99975 23.1872 8.99975C23.1519 8.99975 23.1519 8.99975 23.1166 8.99975C23.0107 8.99975 22.9401 8.99975 22.8342 8.96445C22.7989 8.96445 22.7637 8.96445 22.7284 8.96445C22.7284 8.82328 22.7284 8.71739 22.7284 8.57622C22.7284 6.45857 21.9166 4.44681 20.3989 2.96445C18.8813 1.4821 16.9401 0.564453 14.8225 0.564453C10.446 0.564453 6.8813 4.12916 6.8813 8.50563C6.8813 8.64681 6.8813 8.75269 6.8813 8.89387C6.246 8.92916 5.61071 9.07034 5.01071 9.2821C4.97541 9.2821 4.94012 9.31739 4.90483 9.31739H4.86953C4.26953 9.56445 3.17541 10.1292 2.39894 11.2586C1.65777 12.2468 1.26953 13.4821 1.26953 14.7174C1.26953 16.9056 2.50483 18.9174 4.41071 19.9056V19.9409C4.26953 20.1174 4.19894 20.3645 4.30483 20.5762C4.41071 20.788 4.62247 20.9292 4.83424 20.9292H6.70483C6.846 20.9292 6.98718 20.9645 7.09306 21.0703L7.76365 21.635C8.99894 22.6586 10.5872 23.2233 12.2107 23.2233H12.6695C12.7048 23.5762 12.9166 23.8939 13.2342 24.0703V28.7997C13.2342 29.1174 13.5166 29.3997 13.8342 29.3997C14.1519 29.3997 14.4342 29.1174 14.4342 28.7997V24.2115H15.2107V28.7997C15.2107 29.1174 15.4931 29.3997 15.8107 29.3997C16.1284 29.3997 16.4107 29.1174 16.4107 28.7997V24.1409C16.7284 23.9645 16.9401 23.6468 16.9754 23.2939H17.4342C19.0578 23.2939 20.6107 22.7292 21.8813 21.7056L22.5519 21.1409C22.6578 21.035 22.7989 20.9997 22.9401 20.9997H24.8107C25.0578 20.9997 25.2695 20.8586 25.3401 20.6468C25.446 20.435 25.4107 20.188 25.2342 20.0115C27.1754 18.988 28.4107 16.9762 28.4107 14.7527ZM15.8107 23.1174H13.8695V22.235C13.8695 21.9174 13.5872 21.635 13.2695 21.635C12.9872 21.635 12.7401 21.8468 12.7048 22.0939H12.246C10.9048 22.0939 9.59894 21.635 8.57541 20.788L7.90483 20.2233C7.58718 19.9409 7.16365 19.7997 6.74012 19.7997H6.2813C6.63424 19.5527 7.05777 19.4115 7.4813 19.4115H8.82247C9.17542 19.4115 9.49306 19.2703 9.74012 19.0233C9.98718 18.7762 10.0931 18.4233 10.0931 18.0703C10.0578 17.6115 9.98718 17.1527 9.846 16.6939C10.3401 17.188 10.7637 17.7527 11.0813 18.1762C11.1872 18.3174 11.2931 18.4586 11.3989 18.635L11.4342 18.6703C11.8578 19.235 12.2813 19.6939 12.8813 20.0468L12.9166 20.0821C12.9519 20.0821 12.9872 20.1174 12.9872 20.1174H13.0578C13.0931 20.1527 13.1284 20.1527 13.1989 20.188C13.2342 20.188 13.2342 20.188 13.2695 20.2233C13.3048 20.2586 13.3754 20.2586 13.446 20.2939L13.5166 20.3292C13.5519 20.3292 13.5872 20.3645 13.6225 20.3645C14.046 20.5056 14.4342 20.5762 14.8225 20.5762C16.1284 20.5762 17.3637 19.9409 18.1048 18.8821C18.6695 18.1056 19.2342 17.3292 19.8695 16.6939C19.7284 17.1527 19.6578 17.6115 19.6225 18.1056C19.5872 18.4586 19.7284 18.8115 19.9754 19.0586C20.2225 19.3056 20.5401 19.4468 20.8931 19.4468H22.2342C22.6578 19.4468 23.0813 19.588 23.4342 19.835H22.9401C22.5166 19.835 22.1284 19.9762 21.7754 20.2586L21.1048 20.8233C20.0813 21.6703 18.7754 22.1292 17.4342 22.1292H16.9401C16.8695 21.8821 16.6578 21.6703 16.3754 21.6703C16.0578 21.6703 15.7754 21.9527 15.7754 22.2703L15.8107 23.1174Z" fill="#CCF0EE"/>
</g>
<defs>
<filter id="filter0_i_470_4833" x="0" y="0" width="35" height="35" filterUnits="userSpaceOnUse" color-interpolation-filters="sRGB">
<feFlood flood-opacity="0" result="BackgroundImageFix"/>
<feBlend mode="normal" in="SourceGraphic" in2="BackgroundImageFix" result="shape"/>
<feColorMatrix in="SourceAlpha" type="matrix" values="0 0 0 0 0 0 0 0 0 0 0 0 0 0 0 0 0 0 127 0" result="hardAlpha"/>
<feOffset dx="5" dy="5"/>
<feGaussianBlur stdDeviation="5"/>
<feComposite in2="hardAlpha" operator="arithmetic" k2="-1" k3="1"/>
<feColorMatrix type="matrix" values="0 0 0 0 0.8 0 0 0 0 0.941176 0 0 0 0 0.933333 0 0 0 1 0"/>
<feBlend mode="multiply" in2="shape" result="effect1_innerShadow_470_4833"/>
</filter>
</defs>
</svg>
