<svg width="48" height="37" viewBox="0 0 48 37" fill="none" xmlns="http://www.w3.org/2000/svg">
<mask id="path-1-outside-1_470_4778" maskUnits="userSpaceOnUse" x="0" y="0" width="48" height="37" fill="black">
<rect fill="white" width="48" height="37"/>
<path d="M15.328 35.576C10.976 35.576 7.456 33.928 4.768 30.632C2.08 27.304 0.736 23.16 0.736 18.2C0.736 13.304 2.096 9.192 4.816 5.864C7.568 2.504 11.104 0.823999 15.424 0.823999C19.744 0.823999 23.248 2.488 25.936 5.816C28.656 9.144 30.016 13.272 30.016 18.2C30.016 23.096 28.64 27.224 25.888 30.584C23.168 33.912 19.648 35.576 15.328 35.576ZM9.184 26.792C10.784 29.096 12.864 30.248 15.424 30.248C17.984 30.248 20.032 29.112 21.568 26.84C23.136 24.536 23.92 21.656 23.92 18.2C23.92 14.808 23.12 11.96 21.52 9.656C19.92 7.32 17.856 6.152 15.328 6.152C12.768 6.152 10.704 7.304 9.136 9.608C7.6 11.88 6.832 14.744 6.832 18.2C6.832 21.592 7.616 24.456 9.184 26.792ZM41.2784 35V7.16L35.2304 8.84L33.9824 4.04L43.0064 1.16H47.1344V35H41.2784Z"/>
</mask>
<path d="M4.768 30.632L4.37902 30.9462L4.38052 30.948L4.768 30.632ZM4.816 5.864L4.42919 5.54718L4.42886 5.54758L4.816 5.864ZM25.936 5.816L25.547 6.13017L25.5489 6.13241L25.936 5.816ZM25.888 30.584L25.5012 30.2672L25.5009 30.2676L25.888 30.584ZM9.184 26.792L8.7688 27.0707L8.77332 27.0772L9.184 26.792ZM21.568 26.84L21.1546 26.5587L21.1538 26.56L21.568 26.84ZM21.52 9.656L21.1075 9.93855L21.1093 9.9412L21.52 9.656ZM9.136 9.608L8.72264 9.32668L8.72178 9.32796L9.136 9.608ZM15.328 35.076C11.1222 35.076 7.74599 33.4925 5.15548 30.316L4.38052 30.948C7.16601 34.3635 10.8298 36.076 15.328 36.076V35.076ZM5.15697 30.3178C2.55197 27.0926 1.236 23.0648 1.236 18.2H0.236C0.236 23.2552 1.60803 27.5154 4.37903 30.9462L5.15697 30.3178ZM1.236 18.2C1.236 13.4024 2.56618 9.40682 5.20314 6.18041L4.42886 5.54758C1.62582 8.97718 0.236 13.2056 0.236 18.2H1.236ZM5.20281 6.18082C7.86044 2.93604 11.2548 1.324 15.424 1.324V0.323999C10.9532 0.323999 7.27556 2.07195 4.42919 5.54718L5.20281 6.18082ZM15.424 1.324C19.5947 1.324 22.955 2.92103 25.547 6.13017L26.325 5.50183C23.541 2.05497 19.8933 0.323999 15.424 0.323999V1.324ZM25.5489 6.13241C28.1853 9.35823 29.516 13.3695 29.516 18.2H30.516C30.516 13.1745 29.1267 8.92977 26.3231 5.49958L25.5489 6.13241ZM29.516 18.2C29.516 22.9961 28.1707 27.0079 25.5012 30.2672L26.2748 30.9008C29.1093 27.4401 30.516 23.1959 30.516 18.2H29.516ZM25.5009 30.2676C22.8764 33.4787 19.4988 35.076 15.328 35.076V36.076C19.7972 36.076 23.4596 34.3453 26.2751 30.9004L25.5009 30.2676ZM8.77332 27.0772C10.4563 29.5007 12.6826 30.748 15.424 30.748V29.748C13.0454 29.748 11.1117 28.6913 9.59469 26.5068L8.77332 27.0772ZM15.424 30.748C18.1636 30.748 20.3611 29.518 21.9822 27.12L21.1538 26.56C19.7029 28.706 17.8044 29.748 15.424 29.748V30.748ZM21.9814 27.1213C23.6181 24.7164 24.42 21.7321 24.42 18.2H23.42C23.42 21.5799 22.6539 24.3556 21.1546 26.5587L21.9814 27.1213ZM24.42 18.2C24.42 14.7277 23.6001 11.7747 21.9307 9.3708L21.1093 9.9412C22.6399 12.1453 23.42 14.8883 23.42 18.2H24.42ZM21.9325 9.37346C20.2524 6.92043 18.0428 5.652 15.328 5.652V6.652C17.6692 6.652 19.5876 7.71957 21.1075 9.93854L21.9325 9.37346ZM15.328 5.652C12.5859 5.652 10.374 6.90017 8.72264 9.32669L9.54936 9.88931C11.034 7.70783 12.9501 6.652 15.328 6.652V5.652ZM8.72178 9.32796C7.11691 11.7018 6.332 14.6702 6.332 18.2H7.332C7.332 14.8178 8.08309 12.0582 9.55022 9.88803L8.72178 9.32796ZM6.332 18.2C6.332 21.6706 7.13503 24.6366 8.76885 27.0707L9.59915 26.5133C8.09697 24.2754 7.332 21.5134 7.332 18.2H6.332ZM41.2784 35H40.7784V35.5H41.2784V35ZM41.2784 7.16H41.7784V6.50218L41.1446 6.67824L41.2784 7.16ZM35.2304 8.84L34.7465 8.96582L34.8744 9.45782L35.3642 9.32176L35.2304 8.84ZM33.9824 4.04L33.8304 3.56367L33.3793 3.70761L33.4985 4.16581L33.9824 4.04ZM43.0064 1.16V0.659998H42.9285L42.8544 0.683668L43.0064 1.16ZM47.1344 1.16H47.6344V0.659998H47.1344V1.16ZM47.1344 35V35.5H47.6344V35H47.1344ZM41.7784 35V7.16H40.7784V35H41.7784ZM41.1446 6.67824L35.0966 8.35824L35.3642 9.32176L41.4122 7.64176L41.1446 6.67824ZM35.7143 8.71418L34.4663 3.91418L33.4985 4.16581L34.7465 8.96582L35.7143 8.71418ZM34.1344 4.51633L43.1584 1.63633L42.8544 0.683668L33.8304 3.56367L34.1344 4.51633ZM43.0064 1.66H47.1344V0.659998H43.0064V1.66ZM46.6344 1.16V35H47.6344V1.16H46.6344ZM47.1344 34.5H41.2784V35.5H47.1344V34.5Z" fill="black" mask="url(#path-1-outside-1_470_4778)"/>
</svg>
