<svg width="126" height="26" viewBox="0 0 126 26" fill="none" xmlns="http://www.w3.org/2000/svg">
<path d="M27.1315 13.1214V1.61339C27.1186 0.642833 27.7895 0 28.7829 0C29.7763 0 30.4343 0.642833 30.4343 1.61339L30.4214 12.7054C30.4214 18.201 32.7694 20.5203 38.4717 20.5203L42.626 20.5077C43.6194 20.5203 44.2773 21.1505 44.2773 22.1211C44.2773 23.0916 43.6194 23.7471 42.626 23.7345H37.9944C31.0406 23.7471 27.1186 19.9153 27.1315 13.1214ZM83.0714 0.189069H85.471C92.4248 0.189069 96.3081 3.99566 96.321 10.8021V22.3354C96.3081 23.3059 95.663 23.9361 94.6696 23.9361C93.6762 23.9361 93.0054 23.3059 93.0183 22.3354L92.9925 11.2307C93.0054 5.72249 90.6703 3.44105 84.9808 3.44105H83.5617C77.8722 3.44105 75.5113 5.70988 75.5113 11.2307L75.5242 22.3227C75.5113 23.3059 74.8662 23.9361 73.8728 23.9361C72.8794 23.9361 72.2085 23.3059 72.2215 22.3227V10.8021C72.2085 3.99566 76.1176 0.189069 83.0714 0.189069ZM10.8501 0.189069H13.2498C19.8552 0.189069 24.0868 3.63012 24.0868 10.1089C24.0868 16.5372 19.8552 20.0413 13.2498 20.0287H8.50211C7.49582 20.0413 6.85075 19.3859 6.85075 18.4153C6.85075 17.4448 7.49582 16.8145 8.50211 16.8019L12.7595 16.8145C18.1007 16.8145 20.7712 14.8356 20.7712 10.1089C20.7712 5.38216 18.1007 3.44105 12.7595 3.44105H11.3404C5.65094 3.44105 3.29 5.70988 3.29 11.2307L3.3029 22.3227C3.29 23.3059 2.64494 23.9361 1.65154 23.9361C0.658148 23.9361 -0.0127184 23.3059 0.000182869 22.3227V10.8021C-0.0127184 3.99566 3.89636 0.189069 10.8501 0.189069ZM110.474 0.189069H112.873C119.827 0.189069 123.723 3.99566 123.723 10.8021V16.323C123.71 17.3061 123.065 17.9616 122.072 17.9616C121.079 17.9616 120.408 17.3061 120.421 16.323L120.395 11.2181C120.408 5.70988 118.073 3.42845 112.383 3.42845H110.964C105.274 3.42845 102.914 5.68467 102.914 11.2181V12.6928C102.914 18.2136 105.262 20.5077 110.964 20.5077H120.111C122.472 20.5077 123.298 21.0749 124.562 22.3101L125.323 23.0538C126.149 23.8605 126.226 24.8437 125.517 25.5243C124.807 26.2176 123.839 26.1798 122.885 25.2344L122.046 24.4151C121.633 24.0244 121.259 23.7219 120.227 23.7093H110.461C103.52 23.7219 99.6108 19.9027 99.6108 13.0962V10.7895C99.6237 3.99566 103.52 0.189069 110.474 0.189069ZM48.109 11.2307V12.7054C48.109 18.2262 50.457 20.5203 56.1594 20.5203H57.5785C63.268 20.5203 65.5902 18.2262 65.5902 12.7054V11.2307C65.5902 5.70988 63.268 3.44105 57.5785 3.44105H56.1594C50.4699 3.44105 48.109 5.69728 48.109 11.2307ZM55.6691 0.189069H58.0688C65.0226 0.189069 68.9187 3.99566 68.9187 10.8021V13.1088C68.9187 19.9153 65.0226 23.7219 58.0688 23.7219H55.6691C48.7154 23.7219 44.8192 19.9153 44.8192 13.1088V10.8021C44.8192 3.99566 48.7283 0.189069 55.6691 0.189069Z" fill="black"/>
</svg>
