<svg width="30" height="30" viewBox="0 0 30 30" fill="none" xmlns="http://www.w3.org/2000/svg">
<g filter="url(#filter0_i_470_4840)">
<path d="M30 15.0007C30 14.7839 29.8769 14.5847 29.6835 14.4793L24.0328 11.5439L29.6835 8.60261C29.8769 8.503 30 8.30379 30 8.08115C30 7.8585 29.8769 7.66515 29.6835 7.55969L24.8183 5.02856C24.5311 4.88209 24.1794 4.99341 24.027 5.2805C23.8804 5.5676 23.9918 5.91914 24.279 6.07148L28.1477 8.08115L15 14.9187L1.85815 8.08115L15 1.24945L19.5955 3.63996C19.8828 3.78644 20.2345 3.67511 20.3869 3.38802C20.5334 3.10092 20.422 2.74938 20.1348 2.59704L15.2696 0.0659147C15.0996 -0.0219716 14.9004 -0.0219716 14.7304 0.0659147L0.31653 7.56555C0.123095 7.66515 0 7.86436 0 8.08701C0 8.30965 0.123095 8.503 0.31653 8.60846L5.96717 11.5497L0.31653 14.4793C0.123095 14.5789 0 14.7781 0 15.0007C0 15.2175 0.123095 15.4167 0.31653 15.5222L5.96717 18.4635L0.31653 21.3989C0.123095 21.4985 0 21.6977 0 21.9203C0 22.1371 0.123095 22.3363 0.31653 22.4418L14.7304 29.9355C14.8124 29.9824 14.9062 30 15 30C15.0938 30 15.1876 29.9766 15.2696 29.9355L29.6835 22.4418C29.8769 22.3422 30 22.143 30 21.9203C30 21.7035 29.8769 21.5043 29.6835 21.3989L24.0328 18.4576L29.6835 15.5163C29.8769 15.4167 30 15.2175 30 15.0007ZM15.2696 16.0964L22.7608 12.2001L24.5076 13.1082L11.3892 19.9575L9.05041 18.7388L14.4314 15.9382L14.7304 16.0964C14.8124 16.1433 14.9062 16.1608 15 16.1608C15.0938 16.1667 15.1876 16.1433 15.2696 16.0964ZM13.1594 15.282L7.77843 18.0826L5.45135 16.8698L10.8324 14.0691L13.1594 15.282ZM7.23916 12.2001L9.56624 13.4129L4.18523 16.2136L1.85815 15.0007L7.23916 12.2001ZM15 21.8383L12.6553 20.6196L25.7796 13.7703L28.1477 15.0007L15 21.8383Z" fill="#CCF0EE"/>
</g>
<defs>
<filter id="filter0_i_470_4840" x="0" y="0" width="33" height="33" filterUnits="userSpaceOnUse" color-interpolation-filters="sRGB">
<feFlood flood-opacity="0" result="BackgroundImageFix"/>
<feBlend mode="normal" in="SourceGraphic" in2="BackgroundImageFix" result="shape"/>
<feColorMatrix in="SourceAlpha" type="matrix" values="0 0 0 0 0 0 0 0 0 0 0 0 0 0 0 0 0 0 127 0" result="hardAlpha"/>
<feOffset dx="3" dy="3"/>
<feGaussianBlur stdDeviation="3"/>
<feComposite in2="hardAlpha" operator="arithmetic" k2="-1" k3="1"/>
<feColorMatrix type="matrix" values="0 0 0 0 0.8 0 0 0 0 0.941176 0 0 0 0 0.933333 0 0 0 1 0"/>
<feBlend mode="multiply" in2="shape" result="effect1_innerShadow_470_4840"/>
</filter>
</defs>
</svg>
