<svg width="60" height="37" viewBox="0 0 60 37" fill="none" xmlns="http://www.w3.org/2000/svg">
<mask id="path-1-outside-1_470_4813" maskUnits="userSpaceOnUse" x="0" y="0" width="60" height="37" fill="black">
<rect fill="white" width="60" height="37"/>
<path d="M15.328 35.576C10.976 35.576 7.456 33.928 4.768 30.632C2.08 27.304 0.736 23.16 0.736 18.2C0.736 13.304 2.096 9.192 4.816 5.864C7.568 2.504 11.104 0.823999 15.424 0.823999C19.744 0.823999 23.248 2.488 25.936 5.816C28.656 9.144 30.016 13.272 30.016 18.2C30.016 23.096 28.64 27.224 25.888 30.584C23.168 33.912 19.648 35.576 15.328 35.576ZM9.184 26.792C10.784 29.096 12.864 30.248 15.424 30.248C17.984 30.248 20.032 29.112 21.568 26.84C23.136 24.536 23.92 21.656 23.92 18.2C23.92 14.808 23.12 11.96 21.52 9.656C19.92 7.32 17.856 6.152 15.328 6.152C12.768 6.152 10.704 7.304 9.136 9.608C7.6 11.88 6.832 14.744 6.832 18.2C6.832 21.592 7.616 24.456 9.184 26.792ZM34.6176 35V30.344L46.1856 20.504C48.5536 18.52 50.1856 16.888 51.0816 15.608C52.0096 14.296 52.4736 12.904 52.4736 11.432C52.4736 9.832 51.9616 8.568 50.9376 7.64C49.9136 6.68 48.6176 6.2 47.0496 6.2C45.5776 6.2 44.2496 6.6 43.0656 7.4C41.9136 8.2 40.6496 9.48 39.2736 11.24L35.0976 7.976C36.8256 5.544 38.6016 3.768 40.4256 2.648C42.2816 1.496 44.6336 0.919998 47.4816 0.919998C50.7776 0.919998 53.4496 1.848 55.4976 3.704C57.5456 5.56 58.5696 8.008 58.5696 11.048C58.5696 12.36 58.4096 13.544 58.0896 14.6C57.7696 15.624 57.1936 16.68 56.3616 17.768C55.5616 18.824 54.6816 19.8 53.7216 20.696C52.7936 21.56 51.4976 22.68 49.8336 24.056L42.9216 29.816H58.9056V35H34.6176Z"/>
</mask>
<path d="M4.768 30.632L4.37902 30.9462L4.38052 30.948L4.768 30.632ZM4.816 5.864L4.42919 5.54718L4.42886 5.54758L4.816 5.864ZM25.936 5.816L25.547 6.13017L25.5489 6.13241L25.936 5.816ZM25.888 30.584L25.5012 30.2672L25.5009 30.2676L25.888 30.584ZM9.184 26.792L8.7688 27.0707L8.77332 27.0772L9.184 26.792ZM21.568 26.84L21.1546 26.5587L21.1538 26.56L21.568 26.84ZM21.52 9.656L21.1075 9.93855L21.1093 9.9412L21.52 9.656ZM9.136 9.608L8.72264 9.32668L8.72178 9.32796L9.136 9.608ZM15.328 35.076C11.1222 35.076 7.74599 33.4925 5.15548 30.316L4.38052 30.948C7.16601 34.3635 10.8298 36.076 15.328 36.076V35.076ZM5.15697 30.3178C2.55197 27.0926 1.236 23.0648 1.236 18.2H0.236C0.236 23.2552 1.60803 27.5154 4.37903 30.9462L5.15697 30.3178ZM1.236 18.2C1.236 13.4024 2.56618 9.40682 5.20314 6.18041L4.42886 5.54758C1.62582 8.97718 0.236 13.2056 0.236 18.2H1.236ZM5.20281 6.18082C7.86044 2.93604 11.2548 1.324 15.424 1.324V0.323999C10.9532 0.323999 7.27556 2.07195 4.42919 5.54718L5.20281 6.18082ZM15.424 1.324C19.5947 1.324 22.955 2.92103 25.547 6.13017L26.325 5.50183C23.541 2.05497 19.8933 0.323999 15.424 0.323999V1.324ZM25.5489 6.13241C28.1853 9.35823 29.516 13.3695 29.516 18.2H30.516C30.516 13.1745 29.1267 8.92977 26.3231 5.49958L25.5489 6.13241ZM29.516 18.2C29.516 22.9961 28.1707 27.0079 25.5012 30.2672L26.2748 30.9008C29.1093 27.4401 30.516 23.1959 30.516 18.2H29.516ZM25.5009 30.2676C22.8764 33.4787 19.4988 35.076 15.328 35.076V36.076C19.7972 36.076 23.4596 34.3453 26.2751 30.9004L25.5009 30.2676ZM8.77332 27.0772C10.4563 29.5007 12.6826 30.748 15.424 30.748V29.748C13.0454 29.748 11.1117 28.6913 9.59469 26.5068L8.77332 27.0772ZM15.424 30.748C18.1636 30.748 20.3611 29.518 21.9822 27.12L21.1538 26.56C19.7029 28.706 17.8044 29.748 15.424 29.748V30.748ZM21.9814 27.1213C23.6181 24.7164 24.42 21.7321 24.42 18.2H23.42C23.42 21.5799 22.6539 24.3556 21.1546 26.5587L21.9814 27.1213ZM24.42 18.2C24.42 14.7277 23.6001 11.7747 21.9307 9.3708L21.1093 9.9412C22.6399 12.1453 23.42 14.8883 23.42 18.2H24.42ZM21.9325 9.37346C20.2524 6.92043 18.0428 5.652 15.328 5.652V6.652C17.6692 6.652 19.5876 7.71957 21.1075 9.93854L21.9325 9.37346ZM15.328 5.652C12.5859 5.652 10.374 6.90017 8.72264 9.32669L9.54936 9.88931C11.034 7.70783 12.9501 6.652 15.328 6.652V5.652ZM8.72178 9.32796C7.11691 11.7018 6.332 14.6702 6.332 18.2H7.332C7.332 14.8178 8.08309 12.0582 9.55022 9.88803L8.72178 9.32796ZM6.332 18.2C6.332 21.6706 7.13503 24.6366 8.76885 27.0707L9.59915 26.5133C8.09697 24.2754 7.332 21.5134 7.332 18.2H6.332ZM34.6176 35H34.1176V35.5H34.6176V35ZM34.6176 30.344L34.2937 29.9631L34.1176 30.1129V30.344H34.6176ZM46.1856 20.504L45.8645 20.1207L45.8617 20.1231L46.1856 20.504ZM51.0816 15.608L50.6734 15.3193L50.672 15.3213L51.0816 15.608ZM50.9376 7.64L50.5956 8.00482L50.6019 8.01049L50.9376 7.64ZM43.0656 7.4L42.7857 6.98567L42.7804 6.98931L43.0656 7.4ZM39.2736 11.24L38.9657 11.6339L39.3596 11.9418L39.6675 11.548L39.2736 11.24ZM35.0976 7.976L34.69 7.6864L34.4134 8.07578L34.7897 8.36994L35.0976 7.976ZM40.4256 2.648L40.6873 3.07409L40.6893 3.07282L40.4256 2.648ZM55.4976 3.704L55.1619 4.07449L55.4976 3.704ZM58.0896 14.6L58.5669 14.7491L58.5681 14.745L58.0896 14.6ZM56.3616 17.768L55.9644 17.4643L55.9631 17.4661L56.3616 17.768ZM53.7216 20.696L54.0623 21.0619L54.0628 21.0615L53.7216 20.696ZM49.8336 24.056L49.515 23.6707L49.5135 23.6719L49.8336 24.056ZM42.9216 29.816L42.6015 29.4319L41.5406 30.316H42.9216V29.816ZM58.9056 29.816H59.4056V29.316H58.9056V29.816ZM58.9056 35V35.5H59.4056V35H58.9056ZM35.1176 35V30.344H34.1176V35H35.1176ZM34.9416 30.7249L46.5096 20.8849L45.8617 20.1231L34.2937 29.9631L34.9416 30.7249ZM46.5067 20.8873C48.8824 18.8969 50.5561 17.2306 51.4912 15.8947L50.672 15.3213C49.8151 16.5454 48.2249 18.1431 45.8645 20.1207L46.5067 20.8873ZM51.4898 15.8967C52.4718 14.5084 52.9736 13.017 52.9736 11.432H51.9736C51.9736 12.791 51.5475 14.0836 50.6734 15.3193L51.4898 15.8967ZM52.9736 11.432C52.9736 9.71535 52.4188 8.30757 51.2734 7.2695L50.6019 8.01049C51.5044 8.82843 51.9736 9.94865 51.9736 11.432H52.9736ZM51.2796 7.27523C50.1518 6.21792 48.7285 5.7 47.0496 5.7V6.7C48.5067 6.7 49.6754 7.14207 50.5957 8.00477L51.2796 7.27523ZM47.0496 5.7C45.481 5.7 44.055 6.12809 42.7857 6.9857L43.3456 7.81429C44.4443 7.07191 45.6742 6.7 47.0496 6.7V5.7ZM42.7804 6.98931C41.5703 7.82969 40.2706 9.153 38.8797 10.932L39.6675 11.548C41.0286 9.807 42.257 8.57031 43.3508 7.81068L42.7804 6.98931ZM39.5815 10.8461L35.4055 7.58206L34.7897 8.36994L38.9657 11.6339L39.5815 10.8461ZM35.5052 8.2656C37.2085 5.86832 38.9384 4.14792 40.6873 3.07408L40.164 2.22191C38.2648 3.38808 36.4427 5.21967 34.69 7.6864L35.5052 8.2656ZM40.6893 3.07282C42.4455 1.98279 44.699 1.42 47.4816 1.42V0.419998C44.5682 0.419998 42.1178 1.00921 40.1619 2.22318L40.6893 3.07282ZM47.4816 1.42C50.6788 1.42 53.223 2.31737 55.1619 4.07449L55.8334 3.33351C53.6763 1.37863 50.8765 0.419998 47.4816 0.419998V1.42ZM55.1619 4.07449C57.0942 5.82563 58.0696 8.1334 58.0696 11.048H59.0696C59.0696 7.8826 57.9971 5.29437 55.8334 3.33351L55.1619 4.07449ZM58.0696 11.048C58.0696 12.3199 57.9145 13.4539 57.6111 14.455L58.5681 14.745C58.9048 13.6341 59.0696 12.4001 59.0696 11.048H58.0696ZM57.6124 14.4509C57.3139 15.406 56.7703 16.4105 55.9644 17.4643L56.7588 18.0717C57.617 16.9495 58.2253 15.842 58.5669 14.7491L57.6124 14.4509ZM55.9631 17.4661C55.1802 18.4995 54.3194 19.4542 53.3805 20.3305L54.0628 21.0615C55.0439 20.1458 55.9431 19.1485 56.7602 18.0699L55.9631 17.4661ZM53.3809 20.3301C52.4633 21.1844 51.1759 22.2972 49.515 23.6707L50.1523 24.4413C51.8194 23.0628 53.1239 21.9356 54.0623 21.0619L53.3809 20.3301ZM49.5135 23.6719L42.6015 29.4319L43.2417 30.2001L50.1537 24.4401L49.5135 23.6719ZM42.9216 30.316H58.9056V29.316H42.9216V30.316ZM58.4056 29.816V35H59.4056V29.816H58.4056ZM58.9056 34.5H34.6176V35.5H58.9056V34.5Z" fill="white" mask="url(#path-1-outside-1_470_4813)"/>
</svg>
