<svg width="66" height="40" viewBox="0 0 66 40" fill="none" xmlns="http://www.w3.org/2000/svg">
<mask id="path-1-outside-1_435_3396" maskUnits="userSpaceOnUse" x="0" y="0" width="66" height="40" fill="black">
<rect fill="white" width="66" height="40"/>
<path d="M16.772 38.624C12.0573 38.624 8.244 36.8387 5.332 33.268C2.42 29.6627 0.964 25.1733 0.964 19.8C0.964 14.496 2.43733 10.0413 5.384 6.436C8.36533 2.796 12.196 0.975999 16.876 0.975999C21.556 0.975999 25.352 2.77867 28.264 6.384C31.2107 9.98933 32.684 14.4613 32.684 19.8C32.684 25.104 31.1933 29.576 28.212 33.216C25.2653 36.8213 21.452 38.624 16.772 38.624ZM10.116 29.108C11.8493 31.604 14.1027 32.852 16.876 32.852C19.6493 32.852 21.868 31.6213 23.532 29.16C25.2307 26.664 26.08 23.544 26.08 19.8C26.08 16.1253 25.2133 13.04 23.48 10.544C21.7467 8.01333 19.5107 6.748 16.772 6.748C13.9987 6.748 11.7627 7.996 10.064 10.492C8.4 12.9533 7.568 16.056 7.568 19.8C7.568 23.4747 8.41733 26.5773 10.116 29.108ZM51.4369 38.624C46.3409 38.624 41.8862 36.7693 38.0729 33.06L42.0249 28.432C45.1449 31.344 48.2649 32.8 51.3849 32.8C53.5689 32.8 55.3196 32.228 56.6369 31.084C57.9542 29.9053 58.6129 28.3453 58.6129 26.404C58.6129 24.5667 57.9022 23.1107 56.4809 22.036C55.0942 20.9267 53.2916 20.372 51.0729 20.372C48.8889 20.372 46.6529 20.9093 44.3649 21.984L40.5169 19.436L41.5569 1.6H63.2929V7.268H47.0689L46.4969 15.796C48.4036 15.1027 50.3276 14.756 52.2689 14.756C55.9782 14.756 59.0116 15.744 61.3689 17.72C63.7262 19.696 64.9049 22.556 64.9049 26.3C64.9049 30.0093 63.6569 32.9907 61.1609 35.244C58.6996 37.4973 55.4582 38.624 51.4369 38.624Z"/>
</mask>
<path d="M5.332 33.268L4.94303 33.5822L4.94452 33.584L5.332 33.268ZM5.384 6.436L4.99719 6.11918L4.99686 6.11958L5.384 6.436ZM28.264 6.384L27.875 6.69817L27.8769 6.70041L28.264 6.384ZM28.212 33.216L27.8252 32.8992L27.8249 32.8996L28.212 33.216ZM10.116 29.108L9.7008 29.3867L9.70532 29.3932L10.116 29.108ZM23.532 29.16L23.1186 28.8787L23.1178 28.88L23.532 29.16ZM23.48 10.544L23.0675 10.8266L23.0693 10.8292L23.48 10.544ZM10.064 10.492L9.65064 10.2107L9.64978 10.212L10.064 10.492ZM16.772 38.124C12.2035 38.124 8.53399 36.4031 5.71948 32.952L4.94452 33.584C7.95401 37.2742 11.9111 39.124 16.772 39.124V38.124ZM5.72097 32.9538C2.89197 29.4513 1.464 25.0781 1.464 19.8H0.464C0.464 25.2685 1.94803 29.8741 4.94303 33.5822L5.72097 32.9538ZM1.464 19.8C1.464 14.5944 2.90751 10.2562 5.77114 6.75241L4.99686 6.11958C1.96716 9.82651 0.464 14.3976 0.464 19.8H1.464ZM5.77081 6.75282C8.65777 3.22804 12.3468 1.476 16.876 1.476V0.475999C12.0452 0.475999 8.07289 2.36395 4.99719 6.11918L5.77081 6.75282ZM16.876 1.476C21.4067 1.476 25.059 3.2117 27.875 6.69817L28.653 6.06983C25.645 2.34563 21.7053 0.475999 16.876 0.475999V1.476ZM27.8769 6.70041C30.74 10.2036 32.184 14.5588 32.184 19.8H33.184C33.184 14.3638 31.6813 9.7751 28.6511 6.06758L27.8769 6.70041ZM32.184 19.8C32.184 25.0041 30.724 29.3599 27.8252 32.8992L28.5988 33.5328C31.6626 29.7921 33.184 25.2039 33.184 19.8H32.184ZM27.8249 32.8996C24.9737 36.388 21.3028 38.124 16.772 38.124V39.124C21.6012 39.124 25.557 37.2546 28.5991 33.5324L27.8249 32.8996ZM9.70532 29.3932C11.5216 32.0087 13.9213 33.352 16.876 33.352V32.352C14.284 32.352 12.1771 31.1993 10.5267 28.8228L9.70532 29.3932ZM16.876 33.352C19.8289 33.352 22.1971 32.0273 23.9462 29.44L23.1178 28.88C21.5389 31.2154 19.4697 32.352 16.876 32.352V33.352ZM23.9454 29.4413C25.7127 26.8444 26.58 23.6201 26.58 19.8H25.58C25.58 23.4679 24.7486 26.4836 23.1186 28.8787L23.9454 29.4413ZM26.58 19.8C26.58 16.0451 25.6934 12.8547 23.8907 10.2588L23.0693 10.8292C24.7332 13.2253 25.58 16.2056 25.58 19.8H26.58ZM23.8925 10.2615C22.079 7.61377 19.6975 6.248 16.772 6.248V7.248C19.3239 7.248 21.4143 8.4129 23.0675 10.8265L23.8925 10.2615ZM16.772 6.248C13.8166 6.248 11.4327 7.59217 9.65064 10.2107L10.4774 10.7733C12.0926 8.39983 14.1807 7.248 16.772 7.248V6.248ZM9.64978 10.212C7.91691 12.7752 7.068 15.9822 7.068 19.8H8.068C8.068 16.1298 8.88309 13.1315 10.4782 10.772L9.64978 10.212ZM7.068 19.8C7.068 23.5532 7.93636 26.7579 9.70085 29.3867L10.5311 28.8293C8.8983 26.3967 8.068 23.3961 8.068 19.8H7.068ZM38.0729 33.06L37.6927 32.7353L37.3884 33.0917L37.7243 33.4184L38.0729 33.06ZM42.0249 28.432L42.3661 28.0665L41.984 27.7099L41.6447 28.1073L42.0249 28.432ZM56.6369 31.084L56.9648 31.4616L56.9703 31.4566L56.6369 31.084ZM56.4809 22.036L56.1684 22.4266L56.1794 22.4348L56.4809 22.036ZM44.3649 21.984L44.0889 22.4009L44.3231 22.556L44.5775 22.4366L44.3649 21.984ZM40.5169 19.436L40.0178 19.4069L40.001 19.6941L40.2409 19.8529L40.5169 19.436ZM41.5569 1.6V1.1H41.0852L41.0578 1.57089L41.5569 1.6ZM63.2929 1.6H63.7929V1.1H63.2929V1.6ZM63.2929 7.268V7.768H63.7929V7.268H63.2929ZM47.0689 7.268V6.768H46.6013L46.57 7.23454L47.0689 7.268ZM46.4969 15.796L45.998 15.7625L45.9467 16.5281L46.6678 16.2659L46.4969 15.796ZM61.3689 17.72L61.6901 17.3368V17.3368L61.3689 17.72ZM61.1609 35.244L60.8258 34.8729L60.8233 34.8752L61.1609 35.244ZM51.4369 38.124C46.4773 38.124 42.1461 36.3246 38.4215 32.7016L37.7243 33.4184C41.6264 37.2141 46.2045 39.124 51.4369 39.124V38.124ZM38.4531 33.3847L42.4051 28.7567L41.6447 28.1073L37.6927 32.7353L38.4531 33.3847ZM41.6837 28.7975C44.8618 31.7637 48.0979 33.3 51.3849 33.3V32.3C48.432 32.3 45.428 30.9243 42.3661 28.0665L41.6837 28.7975ZM51.3849 33.3C53.658 33.3 55.5353 32.7029 56.9648 31.4615L56.3091 30.7065C55.1039 31.7531 53.4798 32.3 51.3849 32.3V33.3ZM56.9703 31.4566C58.4048 30.1731 59.1129 28.4719 59.1129 26.404H58.1129C58.1129 28.2187 57.5037 29.6375 56.3035 30.7114L56.9703 31.4566ZM59.1129 26.404C59.1129 24.4157 58.3333 22.8097 56.7825 21.6372L56.1794 22.4348C57.4712 23.4116 58.1129 24.7176 58.1129 26.404H59.1129ZM56.7933 21.6456C55.2977 20.4491 53.3761 19.872 51.0729 19.872V20.872C53.207 20.872 54.8908 21.4042 56.1686 22.4264L56.7933 21.6456ZM51.0729 19.872C48.8047 19.872 46.4964 20.4304 44.1523 21.5314L44.5775 22.4366C46.8094 21.3882 48.9731 20.872 51.0729 20.872V19.872ZM44.641 21.5671L40.793 19.0191L40.2409 19.8529L44.0889 22.4009L44.641 21.5671ZM41.0161 19.4651L42.0561 1.6291L41.0578 1.57089L40.0178 19.4069L41.0161 19.4651ZM41.5569 2.1H63.2929V1.1H41.5569V2.1ZM62.7929 1.6V7.268H63.7929V1.6H62.7929ZM63.2929 6.768H47.0689V7.768H63.2929V6.768ZM46.57 7.23454L45.998 15.7625L46.9958 15.8295L47.5678 7.30146L46.57 7.23454ZM46.6678 16.2659C48.5222 15.5916 50.3884 15.256 52.2689 15.256V14.256C50.2667 14.256 48.285 14.6138 46.326 15.3261L46.6678 16.2659ZM52.2689 15.256C55.886 15.256 58.798 16.2174 61.0477 18.1032L61.6901 17.3368C59.2252 15.2706 56.0705 14.256 52.2689 14.256V15.256ZM61.0477 18.1032C63.2672 19.9637 64.4049 22.6687 64.4049 26.3H65.4049C65.4049 22.4433 64.1853 19.4283 61.6901 17.3368L61.0477 18.1032ZM64.4049 26.3C64.4049 29.8841 63.2053 32.7247 60.8259 34.8729L61.496 35.6151C64.1085 33.2566 65.4049 30.1345 65.4049 26.3H64.4049ZM60.8233 34.8752C58.4723 37.0275 55.3603 38.124 51.4369 38.124V39.124C55.5562 39.124 58.9268 37.9672 61.4985 35.6128L60.8233 34.8752Z" fill="black" mask="url(#path-1-outside-1_435_3396)"/>
</svg>
