<svg width="46" height="50" viewBox="0 0 46 50" fill="none" xmlns="http://www.w3.org/2000/svg">
<g filter="url(#filter0_i_413_2603)">
<path d="M30.7495 0H11.9993C9.92933 0 8.24932 1.68001 8.24932 3.75002V34.9999H3.75C1.67999 34.9999 -2.40803e-05 36.6799 -2.40803e-05 38.7499C-2.40803e-05 40.8199 1.67999 42.5 3.75 42.5H8.24932V46.25C8.24932 48.32 9.92933 50 11.9993 50C14.0694 50 15.7494 48.32 15.7494 46.25V42.5H21.9995C24.0696 42.5 25.7496 40.8199 25.7496 38.7499C25.7496 36.6799 24.0696 34.9999 21.9995 34.9999H15.7494V30.0002H30.7495C39.0194 30.0002 45.7495 23.2701 45.7495 15.0001C45.7495 6.73012 39.0194 0 30.7495 0ZM30.7495 22.5001H15.7494V7.50005H30.7495C34.885 7.50005 38.2495 10.8645 38.2495 15.0001C38.2495 19.1357 34.885 22.5001 30.7495 22.5001Z" fill="#7DD4AF"/>
</g>
<defs>
<filter id="filter0_i_413_2603" x="0" y="0" width="50.7495" height="55" filterUnits="userSpaceOnUse" color-interpolation-filters="sRGB">
<feFlood flood-opacity="0" result="BackgroundImageFix"/>
<feBlend mode="normal" in="SourceGraphic" in2="BackgroundImageFix" result="shape"/>
<feColorMatrix in="SourceAlpha" type="matrix" values="0 0 0 0 0 0 0 0 0 0 0 0 0 0 0 0 0 0 127 0" result="hardAlpha"/>
<feOffset dx="5" dy="5"/>
<feGaussianBlur stdDeviation="5"/>
<feComposite in2="hardAlpha" operator="arithmetic" k2="-1" k3="1"/>
<feColorMatrix type="matrix" values="0 0 0 0 0.8 0 0 0 0 0.941176 0 0 0 0 0.933333 0 0 0 1 0"/>
<feBlend mode="multiply" in2="shape" result="effect1_innerShadow_413_2603"/>
</filter>
</defs>
</svg>
