<svg width="65" height="40" viewBox="0 0 65 40" fill="none" xmlns="http://www.w3.org/2000/svg">
<mask id="path-1-outside-1_435_3377" maskUnits="userSpaceOnUse" x="0" y="0" width="65" height="40" fill="black">
<rect fill="white" width="65" height="40"/>
<path d="M16.772 38.624C12.0573 38.624 8.244 36.8387 5.332 33.268C2.42 29.6627 0.964 25.1733 0.964 19.8C0.964 14.496 2.43733 10.0413 5.384 6.436C8.36533 2.796 12.196 0.975999 16.876 0.975999C21.556 0.975999 25.352 2.77867 28.264 6.384C31.2107 9.98933 32.684 14.4613 32.684 19.8C32.684 25.104 31.1933 29.576 28.212 33.216C25.2653 36.8213 21.452 38.624 16.772 38.624ZM10.116 29.108C11.8493 31.604 14.1027 32.852 16.876 32.852C19.6493 32.852 21.868 31.6213 23.532 29.16C25.2307 26.664 26.08 23.544 26.08 19.8C26.08 16.1253 25.2133 13.04 23.48 10.544C21.7467 8.01333 19.5107 6.748 16.772 6.748C13.9987 6.748 11.7627 7.996 10.064 10.492C8.4 12.9533 7.568 16.056 7.568 19.8C7.568 23.4747 8.41733 26.5773 10.116 29.108ZM51.2931 38.624C45.5038 38.624 40.8584 36.492 37.3571 32.228L41.8291 28.068C44.5331 31.2573 47.7224 32.852 51.3971 32.852C53.2344 32.852 54.7424 32.3493 55.9211 31.344C57.0998 30.304 57.6891 28.9347 57.6891 27.236C57.6891 25.468 56.9264 24.0987 55.4011 23.128C53.9104 22.1227 51.8824 21.62 49.3171 21.62H46.3531L45.3131 17.616L55.1411 7.164H39.3851V1.6H63.4611V6.384L53.3211 16.784C56.5104 17.2347 59.0931 18.3093 61.0691 20.008C63.0451 21.672 64.0331 24.0467 64.0331 27.132C64.0331 30.4947 62.8371 33.2507 60.4451 35.4C58.0878 37.5493 55.0371 38.624 51.2931 38.624Z"/>
</mask>
<path d="M5.332 33.268L4.94303 33.5822L4.94452 33.584L5.332 33.268ZM5.384 6.436L4.99719 6.11918L4.99686 6.11958L5.384 6.436ZM28.264 6.384L27.875 6.69817L27.8769 6.70041L28.264 6.384ZM28.212 33.216L27.8252 32.8992L27.8249 32.8996L28.212 33.216ZM10.116 29.108L9.7008 29.3867L9.70532 29.3932L10.116 29.108ZM23.532 29.16L23.1186 28.8787L23.1178 28.88L23.532 29.16ZM23.48 10.544L23.0675 10.8266L23.0693 10.8292L23.48 10.544ZM10.064 10.492L9.65064 10.2107L9.64978 10.212L10.064 10.492ZM16.772 38.124C12.2035 38.124 8.53399 36.4031 5.71948 32.952L4.94452 33.584C7.95401 37.2742 11.9111 39.124 16.772 39.124V38.124ZM5.72097 32.9538C2.89197 29.4513 1.464 25.0781 1.464 19.8H0.464C0.464 25.2685 1.94803 29.8741 4.94303 33.5822L5.72097 32.9538ZM1.464 19.8C1.464 14.5944 2.90751 10.2562 5.77114 6.75241L4.99686 6.11958C1.96716 9.82651 0.464 14.3976 0.464 19.8H1.464ZM5.77081 6.75282C8.65777 3.22804 12.3468 1.476 16.876 1.476V0.475999C12.0452 0.475999 8.07289 2.36395 4.99719 6.11918L5.77081 6.75282ZM16.876 1.476C21.4067 1.476 25.059 3.2117 27.875 6.69817L28.653 6.06983C25.645 2.34563 21.7053 0.475999 16.876 0.475999V1.476ZM27.8769 6.70041C30.74 10.2036 32.184 14.5588 32.184 19.8H33.184C33.184 14.3638 31.6813 9.7751 28.6511 6.06758L27.8769 6.70041ZM32.184 19.8C32.184 25.0041 30.724 29.3599 27.8252 32.8992L28.5988 33.5328C31.6626 29.7921 33.184 25.2039 33.184 19.8H32.184ZM27.8249 32.8996C24.9737 36.388 21.3028 38.124 16.772 38.124V39.124C21.6012 39.124 25.557 37.2546 28.5991 33.5324L27.8249 32.8996ZM9.70532 29.3932C11.5216 32.0087 13.9213 33.352 16.876 33.352V32.352C14.284 32.352 12.1771 31.1993 10.5267 28.8228L9.70532 29.3932ZM16.876 33.352C19.8289 33.352 22.1971 32.0273 23.9462 29.44L23.1178 28.88C21.5389 31.2154 19.4697 32.352 16.876 32.352V33.352ZM23.9454 29.4413C25.7127 26.8444 26.58 23.6201 26.58 19.8H25.58C25.58 23.4679 24.7486 26.4836 23.1186 28.8787L23.9454 29.4413ZM26.58 19.8C26.58 16.0451 25.6934 12.8547 23.8907 10.2588L23.0693 10.8292C24.7332 13.2253 25.58 16.2056 25.58 19.8H26.58ZM23.8925 10.2615C22.079 7.61377 19.6975 6.248 16.772 6.248V7.248C19.3239 7.248 21.4143 8.4129 23.0675 10.8265L23.8925 10.2615ZM16.772 6.248C13.8166 6.248 11.4327 7.59217 9.65064 10.2107L10.4774 10.7733C12.0926 8.39983 14.1807 7.248 16.772 7.248V6.248ZM9.64978 10.212C7.91691 12.7752 7.068 15.9822 7.068 19.8H8.068C8.068 16.1298 8.88309 13.1315 10.4782 10.772L9.64978 10.212ZM7.068 19.8C7.068 23.5532 7.93636 26.7579 9.70085 29.3867L10.5311 28.8293C8.8983 26.3967 8.068 23.3961 8.068 19.8H7.068ZM37.3571 32.228L37.0165 31.8619L36.6724 32.182L36.9707 32.5453L37.3571 32.228ZM41.8291 28.068L42.2105 27.7447L41.8719 27.3453L41.4885 27.7019L41.8291 28.068ZM55.9211 31.344L56.2456 31.7245L56.2519 31.7189L55.9211 31.344ZM55.4011 23.128L55.1214 23.5427L55.1327 23.5498L55.4011 23.128ZM46.3531 21.62L45.8692 21.7457L45.9664 22.12H46.3531V21.62ZM45.3131 17.616L44.9488 17.2735L44.7598 17.4746L44.8292 17.7417L45.3131 17.616ZM55.1411 7.164L55.5054 7.50651L56.2976 6.664H55.1411V7.164ZM39.3851 7.164H38.8851V7.664H39.3851V7.164ZM39.3851 1.6V1.1H38.8851V1.6H39.3851ZM63.4611 1.6H63.9611V1.1H63.4611V1.6ZM63.4611 6.384L63.8191 6.73305L63.9611 6.58741V6.384H63.4611ZM53.3211 16.784L52.9631 16.4349L52.2746 17.1411L53.2511 17.2791L53.3211 16.784ZM61.0691 20.008L60.7431 20.3872L60.747 20.3905L61.0691 20.008ZM60.4451 35.4L60.1109 35.0281L60.1082 35.0305L60.4451 35.4ZM51.2931 38.124C45.6449 38.124 41.1446 36.0526 37.7435 31.9107L36.9707 32.5453C40.5722 36.9314 45.3626 39.124 51.2931 39.124V38.124ZM37.6976 32.5941L42.1696 28.4341L41.4885 27.7019L37.0165 31.8619L37.6976 32.5941ZM41.4477 28.3913C44.2321 31.6755 47.5543 33.352 51.3971 33.352V32.352C47.8906 32.352 44.8341 30.8392 42.2105 27.7447L41.4477 28.3913ZM51.3971 33.352C53.3302 33.352 54.9602 32.8208 56.2456 31.7244L55.5966 30.9636C54.5247 31.8779 53.1387 32.352 51.3971 32.352V33.352ZM56.2519 31.7189C57.5475 30.5757 58.1891 29.0651 58.1891 27.236H57.1891C57.1891 28.8042 56.652 30.0323 55.5903 30.9691L56.2519 31.7189ZM58.1891 27.236C58.1891 25.2924 57.3351 23.7661 55.6695 22.7062L55.1327 23.5498C56.5177 24.4312 57.1891 25.6436 57.1891 27.236H58.1891ZM55.6807 22.7135C54.0791 21.6333 51.9413 21.12 49.3171 21.12V22.12C51.8235 22.12 53.7418 22.612 55.1215 23.5425L55.6807 22.7135ZM49.3171 21.12H46.3531V22.12H49.3171V21.12ZM46.837 21.4943L45.797 17.4903L44.8292 17.7417L45.8692 21.7457L46.837 21.4943ZM45.6774 17.9585L55.5054 7.50651L54.7768 6.82148L44.9488 17.2735L45.6774 17.9585ZM55.1411 6.664H39.3851V7.664H55.1411V6.664ZM39.8851 7.164V1.6H38.8851V7.164H39.8851ZM39.3851 2.1H63.4611V1.1H39.3851V2.1ZM62.9611 1.6V6.384H63.9611V1.6H62.9611ZM63.1031 6.03495L52.9631 16.4349L53.6791 17.133L63.8191 6.73305L63.1031 6.03495ZM53.2511 17.2791C56.3682 17.7195 58.8551 18.7641 60.7432 20.3872L61.395 19.6288C59.3311 17.8546 56.6527 16.7498 53.3911 16.2889L53.2511 17.2791ZM60.747 20.3905C62.5881 21.9408 63.5331 24.1625 63.5331 27.132H64.5331C64.5331 23.9308 63.5021 21.4032 61.3912 19.6255L60.747 20.3905ZM63.5331 27.132C63.5331 30.3601 62.392 32.9784 60.1109 35.0281L60.7793 35.7719C63.2822 33.5229 64.5331 30.6292 64.5331 27.132H63.5331ZM60.1082 35.0305C57.8587 37.0816 54.9355 38.124 51.2931 38.124V39.124C55.1387 39.124 58.3168 38.0171 60.782 35.7695L60.1082 35.0305Z" fill="white" mask="url(#path-1-outside-1_435_3377)"/>
</svg>
