<svg width="62" height="37" viewBox="0 0 62 37" fill="none" xmlns="http://www.w3.org/2000/svg">
<mask id="path-1-outside-1_470_4955" maskUnits="userSpaceOnUse" x="0" y="0" width="62" height="37" fill="black">
<rect fill="white" width="62" height="37"/>
<path d="M15.328 35.576C10.976 35.576 7.456 33.928 4.768 30.632C2.08 27.304 0.736 23.16 0.736 18.2C0.736 13.304 2.096 9.192 4.816 5.864C7.568 2.504 11.104 0.823999 15.424 0.823999C19.744 0.823999 23.248 2.488 25.936 5.816C28.656 9.144 30.016 13.272 30.016 18.2C30.016 23.096 28.64 27.224 25.888 30.584C23.168 33.912 19.648 35.576 15.328 35.576ZM9.184 26.792C10.784 29.096 12.864 30.248 15.424 30.248C17.984 30.248 20.032 29.112 21.568 26.84C23.136 24.536 23.92 21.656 23.92 18.2C23.92 14.808 23.12 11.96 21.52 9.656C19.92 7.32 17.856 6.152 15.328 6.152C12.768 6.152 10.704 7.304 9.136 9.608C7.6 11.88 6.832 14.744 6.832 18.2C6.832 21.592 7.616 24.456 9.184 26.792ZM48.9104 35.576C45.0384 35.576 41.9344 34.408 39.5984 32.072C38.2224 30.696 37.1824 29.016 36.4784 27.032C35.8064 25.016 35.4704 22.376 35.4704 19.112C35.4704 13.768 36.7184 9.384 39.2144 5.96C41.7424 2.536 45.2944 0.823999 49.8704 0.823999C53.6144 0.823999 57.0384 2.072 60.1424 4.568L56.9744 9.128C54.4464 7.176 52.0144 6.2 49.6784 6.2C47.2464 6.2 45.3264 7.192 43.9184 9.176C42.5424 11.128 41.7744 13.688 41.6144 16.856C43.9184 14.616 46.5904 13.496 49.6304 13.496C53.0224 13.496 55.8224 14.456 58.0304 16.376C60.2704 18.264 61.3904 20.856 61.3904 24.152C61.3904 27.448 60.1904 30.184 57.7904 32.36C55.4224 34.504 52.4624 35.576 48.9104 35.576ZM48.7664 30.488C50.8144 30.488 52.4464 29.912 53.6624 28.76C54.8784 27.608 55.4864 26.12 55.4864 24.296C55.4864 22.6 54.8464 21.208 53.5664 20.12C52.3184 19 50.6704 18.44 48.6224 18.44C46.5744 18.44 44.9264 19.016 43.6784 20.168C42.4304 21.32 41.8064 22.744 41.8064 24.44C41.8064 26.168 42.4464 27.608 43.7264 28.76C45.0064 29.912 46.6864 30.488 48.7664 30.488Z"/>
</mask>
<path d="M4.768 30.632L4.37902 30.9462L4.38052 30.948L4.768 30.632ZM4.816 5.864L4.42919 5.54718L4.42886 5.54758L4.816 5.864ZM25.936 5.816L25.547 6.13017L25.5489 6.13241L25.936 5.816ZM25.888 30.584L25.5012 30.2672L25.5009 30.2676L25.888 30.584ZM9.184 26.792L8.7688 27.0707L8.77332 27.0772L9.184 26.792ZM21.568 26.84L21.1546 26.5587L21.1538 26.56L21.568 26.84ZM21.52 9.656L21.1075 9.93855L21.1093 9.9412L21.52 9.656ZM9.136 9.608L8.72264 9.32668L8.72178 9.32796L9.136 9.608ZM15.328 35.076C11.1222 35.076 7.74599 33.4925 5.15548 30.316L4.38052 30.948C7.16601 34.3635 10.8298 36.076 15.328 36.076V35.076ZM5.15697 30.3178C2.55197 27.0926 1.236 23.0648 1.236 18.2H0.236C0.236 23.2552 1.60803 27.5154 4.37903 30.9462L5.15697 30.3178ZM1.236 18.2C1.236 13.4024 2.56618 9.40682 5.20314 6.18041L4.42886 5.54758C1.62582 8.97718 0.236 13.2056 0.236 18.2H1.236ZM5.20281 6.18082C7.86044 2.93604 11.2548 1.324 15.424 1.324V0.323999C10.9532 0.323999 7.27556 2.07195 4.42919 5.54718L5.20281 6.18082ZM15.424 1.324C19.5947 1.324 22.955 2.92103 25.547 6.13017L26.325 5.50183C23.541 2.05497 19.8933 0.323999 15.424 0.323999V1.324ZM25.5489 6.13241C28.1853 9.35823 29.516 13.3695 29.516 18.2H30.516C30.516 13.1745 29.1267 8.92977 26.3231 5.49958L25.5489 6.13241ZM29.516 18.2C29.516 22.9961 28.1707 27.0079 25.5012 30.2672L26.2748 30.9008C29.1093 27.4401 30.516 23.1959 30.516 18.2H29.516ZM25.5009 30.2676C22.8764 33.4787 19.4988 35.076 15.328 35.076V36.076C19.7972 36.076 23.4596 34.3453 26.2751 30.9004L25.5009 30.2676ZM8.77332 27.0772C10.4563 29.5007 12.6826 30.748 15.424 30.748V29.748C13.0454 29.748 11.1117 28.6913 9.59469 26.5068L8.77332 27.0772ZM15.424 30.748C18.1636 30.748 20.3611 29.518 21.9822 27.12L21.1538 26.56C19.7029 28.706 17.8044 29.748 15.424 29.748V30.748ZM21.9814 27.1213C23.6181 24.7164 24.42 21.7321 24.42 18.2H23.42C23.42 21.5799 22.6539 24.3556 21.1546 26.5587L21.9814 27.1213ZM24.42 18.2C24.42 14.7277 23.6001 11.7747 21.9307 9.3708L21.1093 9.9412C22.6399 12.1453 23.42 14.8883 23.42 18.2H24.42ZM21.9325 9.37346C20.2524 6.92043 18.0428 5.652 15.328 5.652V6.652C17.6692 6.652 19.5876 7.71957 21.1075 9.93854L21.9325 9.37346ZM15.328 5.652C12.5859 5.652 10.374 6.90017 8.72264 9.32669L9.54936 9.88931C11.034 7.70783 12.9501 6.652 15.328 6.652V5.652ZM8.72178 9.32796C7.11691 11.7018 6.332 14.6702 6.332 18.2H7.332C7.332 14.8178 8.08309 12.0582 9.55022 9.88803L8.72178 9.32796ZM6.332 18.2C6.332 21.6706 7.13503 24.6366 8.76885 27.0707L9.59915 26.5133C8.09697 24.2754 7.332 21.5134 7.332 18.2H6.332ZM39.5984 32.072L39.9519 31.7184L39.5984 32.072ZM36.4784 27.032L36.0039 27.1901L36.0072 27.1992L36.4784 27.032ZM39.2144 5.96L38.8121 5.66301L38.8103 5.66546L39.2144 5.96ZM60.1424 4.568L60.553 4.85328L60.819 4.47046L60.4557 4.17835L60.1424 4.568ZM56.9744 9.128L56.6688 9.52375L57.085 9.84512L57.385 9.41328L56.9744 9.128ZM43.9184 9.176L43.5106 8.88662L43.5097 8.88792L43.9184 9.176ZM41.6144 16.856L41.115 16.8308L41.0508 18.1012L41.9629 17.2145L41.6144 16.856ZM58.0304 16.376L57.7022 16.7533L57.7081 16.7583L58.0304 16.376ZM57.7904 32.36L58.126 32.7306L58.1262 32.7304L57.7904 32.36ZM53.6624 28.76L53.3185 28.397V28.397L53.6624 28.76ZM53.5664 20.12L53.2323 20.4923L53.2425 20.501L53.5664 20.12ZM43.7264 28.76L44.0609 28.3884L43.7264 28.76ZM48.9104 35.076C45.1464 35.076 42.1781 33.9446 39.9519 31.7184L39.2448 32.4256C41.6907 34.8714 44.9304 36.076 48.9104 36.076V35.076ZM39.9519 31.7184C38.6327 30.3992 37.6308 28.7845 36.9496 26.8648L36.0072 27.1992C36.734 29.2475 37.812 30.9928 39.2448 32.4256L39.9519 31.7184ZM36.9527 26.8739C36.3043 24.9285 35.9704 22.3479 35.9704 19.112H34.9704C34.9704 22.4041 35.3085 25.1035 36.004 27.1901L36.9527 26.8739ZM35.9704 19.112C35.9704 13.846 37.1994 9.57291 39.6184 6.25453L38.8103 5.66546C36.2373 9.19509 34.9704 13.69 34.9704 19.112H35.9704ZM39.6166 6.25698C42.0424 2.97144 45.4392 1.324 49.8704 1.324V0.323999C45.1496 0.323999 41.4424 2.10056 38.8121 5.66301L39.6166 6.25698ZM49.8704 1.324C53.4928 1.324 56.8078 2.52817 59.8291 4.95765L60.4557 4.17835C57.269 1.61583 53.7359 0.323999 49.8704 0.323999V1.324ZM59.7317 4.28272L56.5637 8.84272L57.385 9.41328L60.553 4.85328L59.7317 4.28272ZM57.28 8.73225C54.6962 6.73718 52.1593 5.7 49.6784 5.7V6.7C51.8694 6.7 54.1966 7.61482 56.6688 9.52375L57.28 8.73225ZM49.6784 5.7C47.0843 5.7 45.0123 6.77056 43.5106 8.88662L44.3261 9.46537C45.6404 7.61344 47.4085 6.7 49.6784 6.7V5.7ZM43.5097 8.88792C42.0641 10.9387 41.2783 13.5986 41.115 16.8308L42.1137 16.8812C42.2705 13.7774 43.0207 11.3173 44.327 9.46408L43.5097 8.88792ZM41.9629 17.2145C44.1795 15.0595 46.7285 13.996 49.6304 13.996V12.996C46.4522 12.996 43.6573 14.1725 41.2658 16.4975L41.9629 17.2145ZM49.6304 13.996C52.9221 13.996 55.5995 14.9248 57.7023 16.7533L58.3585 15.9987C56.0452 13.9872 53.1226 12.996 49.6304 12.996V13.996ZM57.7081 16.7583C59.8205 18.5387 60.8904 20.9827 60.8904 24.152H61.8904C61.8904 20.7293 60.7203 17.9893 58.3526 15.9937L57.7081 16.7583ZM60.8904 24.152C60.8904 27.3097 59.7479 29.9102 57.4545 31.9896L58.1262 32.7304C60.6328 30.4578 61.8904 27.5863 61.8904 24.152H60.8904ZM57.4548 31.9893C55.1893 34.0406 52.3533 35.076 48.9104 35.076V36.076C52.5714 36.076 55.6555 34.9674 58.126 32.7306L57.4548 31.9893ZM48.7664 30.988C50.9123 30.988 52.6776 30.3817 54.0062 29.123L53.3185 28.397C52.2151 29.4423 50.7165 29.988 48.7664 29.988V30.988ZM54.0062 29.123C55.3314 27.8676 55.9864 26.2437 55.9864 24.296H54.9864C54.9864 25.9963 54.4254 27.3484 53.3185 28.397L54.0062 29.123ZM55.9864 24.296C55.9864 22.4549 55.2832 20.9231 53.8902 19.739L53.2425 20.501C54.4096 21.4929 54.9864 22.7451 54.9864 24.296H55.9864ZM53.9003 19.7479C52.5413 18.5283 50.7651 17.94 48.6224 17.94V18.94C50.5757 18.94 52.0954 19.4717 53.2324 20.4921L53.9003 19.7479ZM48.6224 17.94C46.476 17.94 44.6979 18.5465 43.3392 19.8006L44.0175 20.5354C45.1549 19.4855 46.6728 18.94 48.6224 18.94V17.94ZM43.3392 19.8006C41.9889 21.0471 41.3064 22.6042 41.3064 24.44H42.3064C42.3064 22.8838 42.8719 21.5929 44.0175 20.5354L43.3392 19.8006ZM41.3064 24.44C41.3064 26.3092 42.0061 27.8845 43.3919 29.1316L44.0609 28.3884C42.8866 27.3315 42.3064 26.0268 42.3064 24.44H41.3064ZM43.3919 29.1316C44.782 30.3827 46.5898 30.988 48.7664 30.988V29.988C46.7829 29.988 45.2308 29.4413 44.0609 28.3884L43.3919 29.1316Z" fill="black" mask="url(#path-1-outside-1_470_4955)"/>
</svg>
